<svg xmlns="http://www.w3.org/2000/svg" viewBox="0 0 64 80" x="0px" y="0px"><title>icn_finger_hand</title><path d="M55.8,30.4a3.28,3.28,0,0,0,.51-1.66A3.9,3.9,0,0,0,55,26.11a2.78,2.78,0,0,0-2.16-.86c-.73.07-9.33,0-15.31,0a14.36,14.36,0,0,1,3.23-1.83C42,22.92,44.27,21,44.11,19a6.65,6.65,0,0,0-1.21-2.9,1,1,0,0,0-.68-.44,1,1,0,0,0-.78.2c-1.77,1.41-4.25,1.81-6.66,2.2l-1.32.22c-2.88.5-6.44,1.45-8.36,4.29a12.72,12.72,0,0,0-.78,1.36,11,11,0,0,1-.67,1.19,5,5,0,0,1-3.73,2.1h0a2,2,0,0,0-2-2H10a2,2,0,0,0-2,2V44.29a2,2,0,0,0,2,2h8a2,2,0,0,0,2-2V44a7.61,7.61,0,0,1,2.87.62A34,34,0,0,0,27,46.48,61.21,61.21,0,0,0,37,47c2.41,0,5,0,7.4-.07,2,0,3.86,0,5.37,0A3,3,0,0,0,51.92,46a3.76,3.76,0,0,0,1-2.55,3,3,0,0,0-.23-1.07,3.78,3.78,0,0,0,3.08-3.71A3,3,0,0,0,55,36.86c2.93-.68,3.56-2.19,3.51-3.46A3.24,3.24,0,0,0,55.8,30.4Zm-3.3,4.8-8.56.1-3.1,0-.2.05-.18,0a.83.83,0,0,0-.15.11.46.46,0,0,0-.16.11.83.83,0,0,0-.08.12,1.13,1.13,0,0,0-.13.2s0,.07,0,.1a.87.87,0,0,0-.05.28v0h0a.24.24,0,0,0,0,.08,1,1,0,0,0,1,.89h0l11.23-.1c.5,0,1.66,1,1.67,1.48a1.66,1.66,0,0,1-.51,1.19,1.68,1.68,0,0,1-.89.53H40.76a1,1,0,0,0-.84.54l-.05.07a.78.78,0,0,0,0,.21.75.75,0,0,0,0,.16v.05a1,1,0,0,0,1,1c.4,0,3.44,0,5.89,0h2.82c.29,0,1.39.17,1.4,1a1.69,1.69,0,0,1-.43,1.13,1,1,0,0,1-.75.29c-1.52,0-3.39,0-5.4,0-6.27.09-14.06.19-16.91-.4a34,34,0,0,1-3.75-1.7A9.72,9.72,0,0,0,20.16,42h-.24V29.2a7.09,7.09,0,0,0,5.37-3,11.87,11.87,0,0,0,.81-1.41,12.6,12.6,0,0,1,.65-1.16c1.51-2.21,4.56-3,7.06-3.45L35.1,20a18.4,18.4,0,0,0,6.65-2,3.17,3.17,0,0,1,.36,1.09c.07.79-1.28,2.09-2.13,2.42A18.16,18.16,0,0,0,34.63,25l-.29.23h-.92a1,1,0,0,0,0,2c.18,0,18.32.14,19.6,0h0a1.19,1.19,0,0,1,.59.35,2.28,2.28,0,0,1,.71,1.12A1.84,1.84,0,0,1,53,30.21c-1.08,0-12.09,0-12.32,0a1,1,0,0,0-1,.93A1,1,0,0,0,40,32a1,1,0,0,0,.8.45c3.9,0,12.77-.14,13.6-.15,0,0,2.1,0,2.15,1.23S53.46,35.14,52.5,35.2ZM10,27.2h8V44.29H10Zm8,18.09v-1h0v1Z"/><path d="M15.5,40.4a1.25,1.25,0,1,0,1.25,1.25A1.25,1.25,0,0,0,15.5,40.4Z"/><text x="0" y="79" fill="#000000" font-size="5px" font-weight="bold" font-family="'Helvetica Neue', Helvetica, Arial-Unicode, Arial, Sans-serif">Created by Sewon Park</text><text x="0" y="84" fill="#000000" font-size="5px" font-weight="bold" font-family="'Helvetica Neue', Helvetica, Arial-Unicode, Arial, Sans-serif">from the Noun Project</text></svg>