<svg id="visual" viewBox="0 0 900 600" width="900" height="600" xmlns="http://www.w3.org/2000/svg" xmlns:xlink="http://www.w3.org/1999/xlink" version="1.1"><rect x="0" y="0" width="900" height="600" fill="#68c4f3"></rect><path d="M0 280L15 280.7C30 281.3 60 282.7 90 287.5C120 292.3 150 300.7 180 304.5C210 308.3 240 307.7 270 302C300 296.3 330 285.7 360 289C390 292.3 420 309.7 450 316.8C480 324 510 321 540 313C570 305 600 292 630 292.8C660 293.7 690 308.3 720 307.3C750 306.3 780 289.7 810 283.3C840 277 870 281 885 283L900 285L900 601L885 601C870 601 840 601 810 601C780 601 750 601 720 601C690 601 660 601 630 601C600 601 570 601 540 601C510 601 480 601 450 601C420 601 390 601 360 601C330 601 300 601 270 601C240 601 210 601 180 601C150 601 120 601 90 601C60 601 30 601 15 601L0 601Z" fill="#0066FF" stroke-linecap="round" stroke-linejoin="miter"></path></svg>